<svg width="420" height="160" viewBox="0 0 420 160" fill="none" xmlns="http://www.w3.org/2000/svg">
<rect width="420" height="160" fill="#F5F5F5"/>
<path d="M111 80C111 97.1208 97.1208 111 80 111C62.8792 111 49 97.1208 49 80L49 49L80 49C97.1208 49 111 62.8792 111 80Z" stroke="url(#paint0_linear_17_2)" stroke-width="18"/>
<path d="M43 40C41.3431 40 40 41.3431 40 43V58H76C77.6569 58 79 56.6569 79 55V43C79 41.3431 77.6569 40 76 40H43Z" fill="url(#paint1_linear_17_2)"/>
<path d="M309 80C309 62.8792 322.879 49 340 49C357.121 49 371 62.8792 371 80L371 111L340 111C322.879 111 309 97.1208 309 80Z" stroke="url(#paint2_linear_17_2)" stroke-width="18"/>
<path d="M380 117C380 118.657 378.657 120 377 120H362V84C362 82.3431 363.343 81 365 81H377C378.657 81 380 82.3431 380 84V117Z" fill="url(#paint3_linear_17_2)"/>
<circle cx="170" cy="80" r="31" stroke="url(#paint4_linear_17_2)" stroke-width="18"/>
<path d="M225 50H252C267.464 50 280 62.536 280 78V79" stroke="url(#paint5_linear_17_2)" stroke-width="18"/>
<path d="M220 44C220 42.3431 221.343 41 223 41H238V116C238 117.657 236.657 119 235 119H223C221.343 119 220 117.657 220 116V44Z" fill="#5B00B5"/>
<path d="M220 44C220 42.3431 221.343 41 223 41H238V77C238 78.6569 236.657 80 235 80H223C221.343 80 220 78.6569 220 77V44Z" fill="url(#paint6_linear_17_2)"/>
<path d="M271 77H289V116C289 117.657 287.657 119 286 119H274C272.343 119 271 117.657 271 116V77Z" fill="#5B00B5"/>
<defs>
<linearGradient id="paint0_linear_17_2" x1="105.5" y1="108.5" x2="40" y2="40" gradientUnits="userSpaceOnUse">
<stop stop-color="#5B00B5"/>
<stop offset="1" stop-color="#BDBDBD"/>
</linearGradient>
<linearGradient id="paint1_linear_17_2" x1="40" y1="49" x2="79" y2="49" gradientUnits="userSpaceOnUse">
<stop stop-color="#5B00B5"/>
<stop offset="1" stop-color="#BDBDBD" stop-opacity="0"/>
</linearGradient>
<linearGradient id="paint2_linear_17_2" x1="314.5" y1="51.5" x2="380" y2="120" gradientUnits="userSpaceOnUse">
<stop stop-color="#5B00B5"/>
<stop offset="1" stop-color="#BDBDBD"/>
</linearGradient>
<linearGradient id="paint3_linear_17_2" x1="371" y1="120" x2="371" y2="81" gradientUnits="userSpaceOnUse">
<stop stop-color="#5B00B5"/>
<stop offset="1" stop-color="#BDBDBD" stop-opacity="0"/>
</linearGradient>
<linearGradient id="paint4_linear_17_2" x1="195.5" y1="108.5" x2="130" y2="40" gradientUnits="userSpaceOnUse">
<stop stop-color="#5B00B5"/>
<stop offset="1" stop-color="#BDBDBD"/>
</linearGradient>
<linearGradient id="paint5_linear_17_2" x1="270.031" y1="74.8312" x2="250.922" y2="36.9305" gradientUnits="userSpaceOnUse">
<stop stop-color="#5B00B5"/>
<stop offset="1" stop-color="#BDBDBD"/>
</linearGradient>
<linearGradient id="paint6_linear_17_2" x1="229" y1="41" x2="229" y2="80" gradientUnits="userSpaceOnUse">
<stop stop-color="#5B00B5"/>
<stop offset="1" stop-color="#BDBDBD" stop-opacity="0"/>
</linearGradient>
</defs>
</svg>
