<svg width="316" height="120" viewBox="0 0 316 120" fill="none" xmlns="http://www.w3.org/2000/svg">
<rect width="316" height="120" rx="12" fill="white"/>
<path d="M64 40C64 37.7909 65.7909 36 68 36H248C250.209 36 252 37.7909 252 40V80C252 82.2091 250.209 84 248 84H68C65.7909 84 64 82.2091 64 80V40Z" fill="black"/>
<path d="M85.7077 67V53.1818H90.9974C91.996 53.1818 92.8259 53.3393 93.4871 53.6541C94.1528 53.9645 94.6499 54.3896 94.9782 54.9293C95.3111 55.4691 95.4775 56.0808 95.4775 56.7646C95.4775 57.3268 95.3696 57.8081 95.1537 58.2085C94.9378 58.6043 94.6476 58.9259 94.2833 59.1733C93.9189 59.4207 93.5119 59.5984 93.0621 59.7063V59.8413C93.5523 59.8683 94.0224 60.0189 94.4722 60.2933C94.9265 60.5632 95.2976 60.9455 95.5855 61.4403C95.8734 61.9351 96.0173 62.5334 96.0173 63.2351C96.0173 63.9503 95.8441 64.5935 95.4978 65.1648C95.1514 65.7315 94.6296 66.1791 93.9324 66.5075C93.2352 66.8358 92.3581 67 91.301 67H85.7077ZM88.2108 64.9084H90.903C91.8116 64.9084 92.4661 64.7352 92.8664 64.3888C93.2712 64.038 93.4736 63.5882 93.4736 63.0394C93.4736 62.6301 93.3724 62.2612 93.17 61.9329C92.9676 61.6 92.6797 61.3391 92.3064 61.1502C91.933 60.9568 91.4877 60.8601 90.9704 60.8601H88.2108V64.9084ZM88.2108 59.0586H90.6871C91.1189 59.0586 91.508 58.9799 91.8543 58.8224C92.2007 58.6605 92.4728 58.4334 92.6707 58.141C92.8731 57.8441 92.9743 57.4933 92.9743 57.0884C92.9743 56.5531 92.7854 56.1123 92.4076 55.766C92.0342 55.4196 91.4787 55.2464 90.741 55.2464H88.2108V59.0586ZM104.692 62.6413V56.6364H107.135V67H104.767V65.158H104.659C104.425 65.7383 104.04 66.2128 103.505 66.5817C102.974 66.9505 102.32 67.1349 101.542 67.1349C100.862 67.1349 100.262 66.9843 99.7401 66.6829C99.2228 66.377 98.8179 65.9339 98.5256 65.3537C98.2332 64.7689 98.087 64.0627 98.087 63.2351V56.6364H100.529V62.8572C100.529 63.514 100.709 64.0357 101.069 64.4226C101.429 64.8094 101.901 65.0028 102.486 65.0028C102.846 65.0028 103.195 64.9151 103.532 64.7397C103.869 64.5643 104.146 64.3034 104.362 63.957C104.582 63.6062 104.692 63.1676 104.692 62.6413ZM111.165 70.8864C110.832 70.8864 110.524 70.8594 110.24 70.8054C109.961 70.7559 109.739 70.6974 109.572 70.63L110.139 68.7273C110.494 68.8307 110.812 68.8802 111.09 68.8757C111.369 68.8712 111.614 68.7835 111.826 68.6126C112.042 68.4461 112.224 68.1673 112.372 67.7759L112.582 67.2159L108.823 56.6364H111.414L113.803 64.4631H113.911L116.306 56.6364H118.904L114.754 68.255C114.561 68.8037 114.304 69.2738 113.985 69.6651C113.666 70.061 113.274 70.3623 112.811 70.5692C112.352 70.7807 111.803 70.8864 111.165 70.8864ZM127.446 67L124.517 56.6364H127.007L128.829 63.9233H128.923L130.785 56.6364H133.248L135.11 63.8828H135.212L137.006 56.6364H139.503L136.568 67H134.024L132.081 59.9964H131.939L129.996 67H127.446ZM141.208 67V56.6364H143.651V67H141.208ZM142.436 55.1655C142.049 55.1655 141.716 55.0373 141.438 54.7809C141.159 54.52 141.019 54.2074 141.019 53.843C141.019 53.4742 141.159 53.1616 141.438 52.9052C141.716 52.6443 142.049 52.5138 142.436 52.5138C142.827 52.5138 143.16 52.6443 143.435 52.9052C143.714 53.1616 143.853 53.4742 143.853 53.843C143.853 54.2074 143.714 54.52 143.435 54.7809C143.16 55.0373 142.827 55.1655 142.436 55.1655ZM151.337 56.6364V58.5256H145.38V56.6364H151.337ZM146.85 54.1534H149.293V63.8828C149.293 64.2112 149.342 64.4631 149.441 64.6385C149.545 64.8094 149.68 64.9264 149.846 64.9893C150.013 65.0523 150.197 65.0838 150.399 65.0838C150.552 65.0838 150.692 65.0726 150.818 65.0501C150.948 65.0276 151.047 65.0073 151.115 64.9893L151.526 66.8988C151.396 66.9438 151.209 66.9933 150.966 67.0472C150.728 67.1012 150.435 67.1327 150.089 67.1417C149.477 67.1597 148.926 67.0675 148.436 66.8651C147.946 66.6581 147.557 66.3388 147.269 65.907C146.985 65.4751 146.846 64.9354 146.85 64.2876V54.1534ZM156.045 60.9276V67H153.603V53.1818H155.991V58.3974H156.113C156.355 57.8126 156.731 57.3516 157.239 57.0142C157.752 56.6723 158.404 56.5014 159.196 56.5014C159.916 56.5014 160.543 56.6521 161.078 56.9535C161.614 57.2549 162.028 57.6957 162.32 58.2759C162.617 58.8562 162.765 59.5646 162.765 60.4013V67H160.323V60.7791C160.323 60.0819 160.143 59.5399 159.783 59.1531C159.428 58.7617 158.928 58.5661 158.285 58.5661C157.853 58.5661 157.467 58.6605 157.125 58.8494C156.787 59.0339 156.522 59.3015 156.328 59.6523C156.14 60.0032 156.045 60.4283 156.045 60.9276Z" fill="white"/>
<path d="M225.8 64.3534L222.336 56.7849H219.461L224.409 66.997L224.32 67.3045C224.196 67.7132 223.934 68.0662 223.58 68.3032C223.225 68.5402 222.799 68.6465 222.375 68.6039C221.879 68.5993 221.392 68.4678 220.96 68.222L220.5 70.4092C221.164 70.6836 221.875 70.8267 222.593 70.8308C224.572 70.8308 225.77 70.1017 226.76 67.9542L232 56.7849H229.224L225.8 64.3534Z" fill="white"/>
<path d="M201.319 53.1792H193.015V67.0912H195.737V61.9777H201.319C204.352 61.9777 206.346 60.4452 206.346 57.5785C206.346 54.7117 204.352 53.1792 201.319 53.1792ZM201.17 59.5425H195.727V55.5747H201.17C202.744 55.5747 203.644 56.2939 203.644 57.5586C203.644 58.8233 202.744 59.5425 201.17 59.5425Z" fill="white"/>
<path d="M217.725 64.4526V60.2617C217.725 57.7818 215.948 56.4972 212.9 56.4972C210.426 56.4972 208.259 57.6529 207.65 59.4284L209.887 60.222C210.218 59.3342 211.371 58.6795 212.806 58.6795C214.508 58.6795 215.226 59.3739 215.226 60.222V60.4948L211.178 60.9411C208.847 61.1891 207.313 62.2356 207.313 64.1054C207.313 66.1538 209.07 67.2549 211.401 67.2549C212.903 67.3018 214.366 66.7692 215.488 65.7669C215.894 66.7589 216.31 67.4235 219.076 67.0713V64.9982C217.967 65.266 217.725 64.9982 217.725 64.4526ZM215.251 63.1234C215.251 64.4725 213.365 65.1867 211.787 65.1867C210.584 65.1867 209.862 64.7998 209.862 64.031C209.862 63.2623 210.456 62.9845 211.604 62.8506L215.261 62.4241L215.251 63.1234Z" fill="white"/>
<path d="M187.868 63.8277C187.887 63.8856 187.887 63.9483 187.868 64.0062C187.857 64.064 187.829 64.1174 187.789 64.16L185.171 66.9126C185.113 66.9721 185.044 67.0193 184.968 67.0515C184.892 67.0851 184.809 67.102 184.726 67.1011H172.31C172.252 67.1016 172.196 67.0862 172.147 67.0565C172.097 67.0229 172.058 66.9766 172.033 66.9226C172.015 66.8677 172.015 66.8088 172.033 66.7539C172.043 66.6968 172.069 66.6437 172.107 66.6002L174.73 63.8475C174.787 63.7881 174.856 63.7409 174.933 63.7087C175.009 63.6747 175.092 63.6577 175.175 63.6591H187.571C187.631 63.6579 187.689 63.6752 187.739 63.7087C187.795 63.7317 187.84 63.7739 187.868 63.8277ZM185.176 58.6002C185.117 58.5423 185.048 58.4953 184.973 58.4613C184.896 58.4301 184.814 58.4133 184.731 58.4117H172.31C172.252 58.4125 172.195 58.4297 172.146 58.4613C172.097 58.4928 172.058 58.5375 172.033 58.5902C172.016 58.6451 172.016 58.704 172.033 58.7589C172.041 58.8166 172.067 58.8703 172.107 58.9126L174.73 61.6702C174.789 61.7281 174.857 61.7751 174.933 61.8091C175.01 61.8407 175.092 61.8575 175.175 61.8587H187.571C187.631 61.8598 187.689 61.8425 187.739 61.8091C187.789 61.7799 187.828 61.7344 187.848 61.6801C187.873 61.6274 187.882 61.568 187.872 61.5103C187.862 61.4525 187.835 61.3992 187.794 61.3578L185.176 58.6002ZM172.147 56.5667C172.196 56.5964 172.252 56.6118 172.31 56.6113H184.731C184.814 56.6122 184.897 56.5953 184.973 56.5617C185.049 56.5295 185.118 56.4823 185.176 56.4228L187.794 53.6702C187.834 53.6276 187.862 53.5742 187.873 53.5164C187.89 53.4615 187.89 53.4027 187.873 53.3478C187.852 53.2936 187.814 53.2481 187.764 53.2189C187.714 53.1854 187.655 53.1681 187.596 53.1693H175.155C175.072 53.1679 174.989 53.1849 174.913 53.2189C174.837 53.2511 174.768 53.2983 174.71 53.3577L172.092 56.1203C172.051 56.1622 172.023 56.2159 172.013 56.274C171.996 56.3289 171.996 56.3878 172.013 56.4427C172.045 56.4957 172.091 56.5386 172.147 56.5667Z" fill="url(#paint0_linear_145_3438)"/>
<defs>
<linearGradient id="paint0_linear_145_3438" x1="173.341" y1="67.4332" x2="186.092" y2="52.7744" gradientUnits="userSpaceOnUse">
<stop offset="0.08" stop-color="#9945FF"/>
<stop offset="0.3" stop-color="#8752F3"/>
<stop offset="0.5" stop-color="#5497D5"/>
<stop offset="0.6" stop-color="#43B4CA"/>
<stop offset="0.72" stop-color="#28E0B9"/>
<stop offset="0.97" stop-color="#19FB9B"/>
</linearGradient>
</defs>
</svg>
